<mxfile host="app.diagrams.net" modified="2023-11-02T11:13:28.935Z" agent="Mozilla/5.0 (Macintosh; Intel Mac OS X 10.15; rv:109.0) Gecko/20100101 Firefox/119.0" version="22.0.8" etag="0_LE7WMO4OQgY3yUaGTj" type="github">
  <diagram name="Page-1" id="Wxtsiz9HJDzN3xDBZqil">
    <mxGraphModel>
      <root>
        <mxCell id="0" />
        <mxCell id="1" parent="0" />
      </root>
    </mxGraphModel>
  </diagram>
</mxfile>
